<svg width="33" height="33" viewBox="0 0 33 33" fill="none" xmlns="http://www.w3.org/2000/svg">
<path fill-rule="evenodd" clip-rule="evenodd" d="M14.2459 3.56786C8.07118 4.63659 3.37498 10.0199 3.37498 16.5C3.37498 23.7488 9.25124 29.625 16.5 29.625C22.9801 29.625 28.3634 24.9288 29.4322 18.7542C27.4865 20.7186 24.7876 21.9356 21.803 21.9356C15.8722 21.9356 11.0644 17.1278 11.0644 11.197C11.0644 8.21246 12.2815 5.51349 14.2459 3.56786ZM0.458313 16.5C0.458313 7.64047 7.64041 0.458374 16.5 0.458374C17.6117 0.458374 18.6986 0.571688 19.7491 0.787894C20.413 0.924551 20.8953 1.50069 20.9129 2.17834C20.9306 2.85598 20.4789 3.45643 19.823 3.62745C16.4609 4.504 13.9811 7.56273 13.9811 11.197C13.9811 15.517 17.483 19.0189 21.803 19.0189C25.4373 19.0189 28.4961 16.5391 29.3725 13.1771C29.5435 12.5211 30.144 12.0695 30.8216 12.0871C31.4993 12.1047 32.0754 12.587 32.2121 13.2509C32.4283 14.3014 32.5416 15.3883 32.5416 16.5C32.5416 25.3596 25.3596 32.5417 16.5 32.5417C7.64041 32.5417 0.458313 25.3596 0.458313 16.5Z" fill="white"/>
</svg>
