<svg width="51" height="51" viewBox="0 0 51 51" fill="none" xmlns="http://www.w3.org/2000/svg">
<path fill-rule="evenodd" clip-rule="evenodd" d="M19.7709 4.875C17.2396 4.875 15.1875 6.92703 15.1875 9.45833V11.75C15.1875 13.0157 14.1615 14.0417 12.8959 14.0417H4.87502V23.2083H7.16669C12.2293 23.2083 16.3334 27.3124 16.3334 32.375C16.3334 37.4376 12.2293 41.5417 7.16669 41.5417H4.87502V46.125H34.6667V39.25C34.6667 37.9843 35.6927 36.9583 36.9584 36.9583H41.5417C44.073 36.9583 46.125 34.9063 46.125 32.375C46.125 29.8437 44.073 27.7917 41.5417 27.7917H36.9584C35.6927 27.7917 34.6667 26.7657 34.6667 25.5V14.0417H26.6459C25.3802 14.0417 24.3542 13.0157 24.3542 11.75V9.45833C24.3542 6.92703 22.3022 4.875 19.7709 4.875ZM10.6042 9.45833C10.6042 4.39572 14.7083 0.291664 19.7709 0.291664C24.8335 0.291664 28.9375 4.39572 28.9375 9.45833H36.9584C38.224 9.45833 39.25 10.4843 39.25 11.75V23.2083H41.5417C46.6043 23.2083 50.7084 27.3124 50.7084 32.375C50.7084 37.4376 46.6043 41.5417 41.5417 41.5417H39.25V48.4167C39.25 49.6823 38.224 50.7083 36.9584 50.7083H2.58335C1.3177 50.7083 0.291687 49.6823 0.291687 48.4167V39.25C0.291687 37.9843 1.3177 36.9583 2.58335 36.9583H7.16669C9.69798 36.9583 11.75 34.9063 11.75 32.375C11.75 29.8437 9.69798 27.7917 7.16669 27.7917H2.58335C1.3177 27.7917 0.291687 26.7657 0.291687 25.5V11.75C0.291687 10.4843 1.3177 9.45833 2.58335 9.45833H10.6042Z" fill="white"/>
</svg>
