<svg width="51" height="49" viewBox="0 0 51 49" fill="none" xmlns="http://www.w3.org/2000/svg">
<path fill-rule="evenodd" clip-rule="evenodd" d="M18.7608 0.203324C19.8101 -0.0871221 20.9188 0.400717 21.4136 1.3705C22.1745 2.86193 23.7209 3.87515 25.5 3.87515C27.2791 3.87515 28.8256 2.86193 29.5865 1.3705C30.0812 0.400717 31.19 -0.0871221 32.2392 0.203324C36.19 1.29696 39.7483 3.32662 42.6615 6.03541C43.4029 6.72479 43.6041 7.81897 43.1565 8.72701C42.8569 9.33464 42.6875 10.0193 42.6875 10.7501C42.6875 13.2814 44.7396 15.3334 47.2709 15.3334L47.3346 15.333C48.3477 15.3185 49.2501 15.9711 49.5537 16.9377C50.3044 19.3279 50.7084 21.869 50.7084 24.5001C50.7084 26.2367 50.5324 27.9345 50.1967 29.576C49.9615 30.7259 48.8955 31.5123 47.7274 31.3975C47.5773 31.3827 47.4251 31.3751 47.2709 31.3751C44.7396 31.3751 42.6875 33.4272 42.6875 35.9584C42.6875 37.0858 43.0916 38.1128 43.7654 38.9115C44.5223 39.8086 44.479 41.1326 43.6651 41.9783C40.6905 45.0693 36.9313 47.4049 32.7038 48.6635C31.5079 49.0195 30.2469 48.3534 29.867 47.1649C29.2755 45.3146 27.5407 43.9793 25.5 43.9793C23.4594 43.9793 21.7246 45.3146 21.1331 47.1649C20.7531 48.3534 19.4922 49.0195 18.2963 48.6635C14.0688 47.4049 10.3095 45.0693 7.33489 41.9784C6.52096 41.1326 6.47767 39.8086 7.23462 38.9114C7.90847 38.1128 8.31252 37.0858 8.31252 35.9584C8.31252 33.4271 6.26049 31.3751 3.72919 31.3751C3.57503 31.3751 3.42276 31.3827 3.27265 31.3975C2.10456 31.5123 1.03856 30.7259 0.803365 29.576C0.467615 27.9345 0.291687 26.2367 0.291687 24.5001C0.291687 21.869 0.695563 19.3279 1.44635 16.9377C1.74998 15.971 2.65232 15.3185 3.66541 15.333L3.72919 15.3334C6.26049 15.3334 8.31252 13.2814 8.31252 10.7501C8.31252 10.0193 8.14315 9.33464 7.84359 8.72701C7.39593 7.81897 7.59713 6.72479 8.33854 6.03541C11.2517 3.32662 14.8101 1.29696 18.7608 0.203324ZM12.5941 8.41097C12.7911 9.15895 12.8959 9.94328 12.8959 10.7501C12.8959 15.2345 9.67571 18.9668 5.42159 19.7609C5.06436 21.2808 4.87502 22.8671 4.87502 24.5001C4.87502 25.306 4.92112 26.1002 5.0107 26.8806C9.46664 27.504 12.8959 31.3308 12.8959 35.9584C12.8959 37.4234 12.5509 38.8104 11.9386 40.0401C13.6574 41.5415 15.6262 42.7615 17.7733 43.6296C19.401 41.0849 22.2513 39.3959 25.5 39.3959C28.7487 39.3959 31.5991 41.0849 33.2268 43.6296C35.3738 42.7615 37.3427 41.5415 39.0614 40.0401C38.4491 38.8104 38.1042 37.4234 38.1042 35.9584C38.1042 31.3308 41.5334 27.504 45.9893 26.8806C46.0789 26.1002 46.125 25.306 46.125 24.5001C46.125 22.8671 45.9357 21.2808 45.5784 19.7609C41.3243 18.9668 38.1042 15.2345 38.1042 10.7501C38.1042 9.94328 38.209 9.15895 38.4059 8.41097C36.6695 7.01603 34.7037 5.8973 32.5752 5.12001C30.8957 7.15649 28.3511 8.45848 25.5 8.45848C22.6489 8.45848 20.1044 7.15649 18.4249 5.12001C16.2964 5.8973 14.3306 7.01603 12.5941 8.41097Z" fill="white"/>
</svg>
